<svg xmlns="http://www.w3.org/2000/svg" viewBox="0 0 360 80" role="img" aria-labelledby="title desc">
  <title id="title">BetweenUs wordmark placeholder</title>
  <desc id="desc">Placeholder until the official branding is delivered.</desc>
  <rect width="360" height="80" rx="12" fill="url(#g)" />
  <path
    d="M62.2 24.3h15.4c7.5 0 12.3 4.2 12.3 10.4 0 4.7-2.6 8-6.6 9.5 4.9 1.3 7.9 5.3 7.9 10.7 0 7-5.4 11.8-13.9 11.8H62.2V24.3Zm13.6 17.4c3.1 0 5.2-1.8 5.2-4.4 0-2.7-2-4.4-5.2-4.4H70v8.8h5.8Zm.6 17.8c3.5 0 5.8-1.9 5.8-4.8 0-2.9-2.3-4.8-5.8-4.8H70v9.7h6.4Z"
    fill="#cffafe"
  />
  <path
    d="M113.4 24.3v42.4H103V24.3h10.4Zm23.2 0v7.9H122V24.3h14.6Zm-14.6 13.7h14.6v7.9H122V38Zm0 13.7h14.6v7.9H122v-7.9Z"
    fill="#bfdbfe"
  />
  <path
    d="M169.5 24.3c12 0 20.2 7.7 20.2 19.3 0 11.8-8.3 19.5-20.2 19.5-12 0-20.3-7.7-20.3-19.5 0-11.6 8.3-19.3 20.3-19.3Zm0 31c5.7 0 9.7-4.1 9.7-11.7 0-7.4-4-11.5-9.7-11.5-5.8 0-9.8 4.1-9.8 11.5 0 7.6 4 11.7 9.8 11.7Z"
    fill="#c4b5fd"
  />
  <path
    d="M218.6 24.3c9.5 0 15.9 5 15.9 12.6a11 11 0 0 1-6.7 10.4l7.5 19.4h-11.4l-6-17h-4.3v17H203V24.3h15.6Zm.1 17.4c3.4 0 5.4-1.7 5.4-4.6 0-2.7-2-4.4-5.4-4.4h-5.2v9h5.2Z"
    fill="#fbcfe8"
  />
  <path
    d="M261.5 24.3c12 0 20.2 7.7 20.2 19.3 0 11.8-8.3 19.5-20.2 19.5-12 0-20.3-7.7-20.3-19.5 0-11.6 8.3-19.3 20.3-19.3Zm0 31c5.7 0 9.7-4.1 9.7-11.7 0-7.4-4-11.5-9.7-11.5-5.8 0-9.8 4.1-9.8 11.5 0 7.6 4 11.7 9.8 11.7Z"
    fill="#fde68a"
  />
  <path
    d="M320 24.3V68c-4 3.1-9.2 5-14.5 5-12.5 0-21.1-7.8-21.1-19.7 0-11.6 8.4-19.3 20-19.3 4.1 0 8.2 1 11.3 2.9V24.3H320Zm-14.5 30.8c4.5 0 8.2-3.4 8.2-8.7 0-5.3-3.7-8.7-8.2-8.7-4.6 0-8.2 3.4-8.2 8.7 0 5.3 3.6 8.7 8.2 8.7Z"
    fill="#bbf7d0"
  />
  <defs>
    <linearGradient id="g" x1="0" y1="0" x2="360" y2="80" gradientUnits="userSpaceOnUse">
      <stop offset="0" stop-color="#0f172a" />
      <stop offset="1" stop-color="#1f2937" />
    </linearGradient>
  </defs>
</svg>
